<?xml version="1.0" encoding="UTF-8"?>
<svg version="1.1" xmlns="http://www.w3.org/2000/svg" width="2000" height="1344">
<path d="M0 0 C1.09344727 0.52779053 2.18689453 1.05558105 3.31347656 1.59936523 C6.4609375 3.19140625 6.4609375 3.19140625 9.25683594 4.87915039 C17.84017377 9.87758522 25.95386116 10.2526058 35.65164185 10.63903809 C40.54858471 10.83926722 45.43973094 11.13952753 50.33203125 11.4296875 C51.84403358 11.51674454 51.84403358 11.51674454 53.38658142 11.6055603 C138.79876337 16.69609545 225.11642542 37.4209291 365.33251953 96.64257812 C368.18025172 98.05244335 371.03545482 99.44536055 373.89453125 100.83203125 C386.71917126 107.09053529 399.11716935 114.0374814 411.4609375 121.19140625 C412.26370117 121.6517627 413.06646484 122.11211914 413.89355469 122.58642578 C425.68152697 129.36264072 437.02513867 136.78045041 448.3359375 144.31640625 C449.38016876 145.0115181 449.38016876 145.0115181 450.44549561 145.72067261 C462.82070244 153.97221081 475.04450915 162.43079799 486.8359375 171.50390625 C487.53799316 172.04241211 488.24004883 172.58091797 488.96337891 173.13574219 C495.98077524 178.54580193 502.8551778 184.12640683 509.70068359 189.75146484 C511.2753965 191.03962805 512.86157419 192.3137465 514.44921875 193.5859375 C520.13936365 198.15616966 525.55601994 202.94770375 530.87182617 207.94360352 C531.89060569 208.89964437 532.91452049 209.85024658 533.94384766 210.79492188 C534.9784532 211.74727844 535.99854535 212.71558666 537.00537109 213.69726562 C538.69084919 215.31839256 538.69084919 215.31839256 541.4609375 217.19140625 C545.32849478 216.8453215 548.34067684 215.41107101 551.7578125 213.63671875 C552.78527588 213.11013672 553.81273926 212.58355469 554.87133789 212.04101562 C555.97340576 211.47189453 557.07547363 210.90277344 558.2109375 210.31640625 C598.90463999 189.68505294 641.93902102 173.17187374 686.359375 162.62890625 C687.37708984 162.38479004 688.39480469 162.14067383 689.44335938 161.88916016 C691.44267732 161.42685832 693.44963091 160.99633711 695.46289062 160.59912109 C703.74106048 158.84318663 710.0849881 155.29241288 717.2109375 150.81640625 C719.60183916 149.35382136 722.00037466 147.90393006 724.3984375 146.453125 C724.99686462 146.08923172 725.59529175 145.72533844 726.21185303 145.35041809 C752.66086251 129.30386593 781.10376535 115.03948122 810.4609375 105.19140625 C811.40308105 104.87236328 812.34522461 104.55332031 813.31591797 104.22460938 C839.22261684 95.57282468 865.69114909 90.81078423 892.99584961 90.87573242 C895.76000546 90.8788909 898.52308474 90.85533267 901.28710938 90.83007812 C919.84738232 90.76436654 942.3163364 91.32518421 956.8359375 104.31640625 C959.28638538 108.65181404 959.38018584 112.3345902 958.4609375 117.19140625 C954.84598806 126.19219129 947.06871444 130.4828341 938.703125 134.5234375 C884.58628222 157.25251147 816.76064596 157.04602225 759.03796291 162.80234623 C755.3576938 163.16993872 751.67781264 163.54133369 747.99795723 163.91304207 C745.48160338 164.16547883 742.96471437 164.4119216 740.44773865 164.6580658 C732.35387161 165.46378523 724.28315521 166.40847196 716.23291016 167.57495117 C715.46050586 167.67767963 714.68810156 167.7804081 713.89229107 167.88624954 C705.90419675 169.10748699 700.0454871 173.01369273 693.6484375 177.75390625 C692.48310476 178.57856423 691.31559227 179.40015001 690.14599609 180.21875 C687.88666751 181.80819583 685.64188568 183.4148216 683.41064453 185.04345703 C680.9863142 186.80883182 678.54692748 188.54215775 676.08203125 190.25 C668.8949945 195.24804763 661.96216526 200.57826553 655.05664062 205.95458984 C652.43343789 207.98781277 649.78787315 209.99182415 647.1484375 212.00390625 C641.50575697 216.3265259 635.9879861 220.79472859 630.48657227 225.29516602 C626.06615862 228.90626058 621.59502368 232.44197405 617.0859375 235.94140625 C612.17022494 239.76664214 607.4955318 243.76722326 602.9140625 247.9921875 C599.3364072 251.19954408 595.57814869 254.17076029 591.80859375 257.1484375 C589.6500811 259.0268104 588.06509503 260.83546532 586.4609375 263.19140625 C586.98300781 263.75085938 587.50507812 264.3103125 588.04296875 264.88671875 C593.53878633 270.87340621 598.60564865 277.08157307 603.58203125 283.5 C605.48480761 285.95253934 607.41295232 288.38050271 609.37109375 290.7890625 C626.85810493 312.29973624 642.33734152 335.35114348 656.4609375 359.19140625 C657.14373779 360.33270996 657.14373779 360.33270996 657.84033203 361.49707031 C685.52895115 407.94932122 705.91897521 458.60433244 718.4609375 511.19140625 C718.87182617 512.9091626 718.87182617 512.9091626 719.29101562 514.66162109 C723.75775411 533.6614045 727.00697436 552.8379681 729.4609375 572.19140625 C729.58789001 573.1863913 729.58789001 573.1863913 729.71740723 574.20147705 C734.83940278 614.99999644 734.4883236 657.40035409 729.4609375 698.19140625 C729.3784375 698.86981567 729.2959375 699.5482251 729.2109375 700.24719238 C718.58977529 786.68200619 685.97615058 869.93769088 578.4609375 1015.19140625 C577.66099365 1016.07820068 576.8610498 1016.96499512 576.03686523 1017.87866211 C569.66124245 1024.89745835 563.10728626 1031.70193715 556.3894043 1038.39331055 C554.76037178 1040.01692854 553.13683022 1041.64590228 551.51367188 1043.27539062 C546.00036675 1048.79220238 540.39405223 1054.12449003 534.4609375 1059.19140625 C532.68523529 1060.81108442 530.91385443 1062.43552343 529.1484375 1064.06640625 C524.6656546 1068.15455626 520.06139958 1072.03561037 515.33984375 1075.84375 C512.75158783 1077.95439017 510.20773553 1080.10507336 507.67285156 1082.27880859 C501.6823279 1087.40923635 495.55267512 1092.25974616 489.18408203 1096.91894531 C487.3243028 1098.29230453 485.48421832 1099.68969568 483.64453125 1101.08984375 C460.35979538 1118.68764805 435.71907189 1134.5893488 410.4609375 1149.19140625 C409.74873047 1149.60567871 409.03652344 1150.01995117 408.30273438 1150.44677734 C404.50074503 1152.65128418 400.67092251 1154.79849354 396.81396484 1156.90527344 C395.06718612 1157.86003898 393.32314038 1158.81980819 391.58056641 1159.78222656 C323.49517199 1197.3171497 249.57116267 1224.04773408 48.3359375 1258.94140625 C47.16065994 1259.03029114 47.16065994 1259.03029114 45.9616394 1259.12097168 C24.31469306 1260.72663524 2.66495332 1261.40138301 -19.0390625 1261.37890625 C-20.68465652 1261.37799988 -20.68465652 1261.37799988 -22.36349487 1261.3770752 C-82.51296426 1261.28817447 -142.62054145 1255.43028226 -201.5390625 1243.19140625 C-202.65293335 1242.96127838 -202.65293335 1242.96127838 -203.78930664 1242.72650146 C-264.61248656 1230.12113166 -324.06351336 1211.12174885 -380.5390625 1185.19140625 C-381.80963914 1184.61177322 -383.08031434 1184.03235619 -384.35107422 1183.453125 C-400.47770071 1176.09029583 -416.35902527 1168.47884495 -431.79492188 1159.73779297 C-434.77681608 1158.05742661 -437.77374036 1156.40617458 -440.7734375 1154.7578125 C-453.65204415 1147.65826816 -466.24657588 1140.26337784 -478.5390625 1132.19140625 C-479.98442383 1131.24297852 -479.98442383 1131.24297852 -481.45898438 1130.27539062 C-514.9119447 1108.26186531 -547.04373534 1084.31197447 -576.43847656 1057.05639648 C-578.38444132 1055.25391635 -580.34013172 1053.46479425 -582.30493164 1051.68261719 C-589.14989489 1045.47204789 -595.79204891 1039.09583887 -602.3137207 1032.54711914 C-603.86490977 1030.99051236 -605.42145642 1029.43940454 -606.97851562 1027.88867188 C-611.844929 1023.02549158 -616.61294306 1018.11931005 -621.08764648 1012.88793945 C-623.13507002 1010.49474414 -625.27712297 1008.1921253 -627.4140625 1005.87890625 C-631.65882257 1001.23943526 -635.64045436 996.44277599 -639.53125 991.50390625 C-643.18680653 987.29361546 -646.22389586 985.78285555 -651.6640625 984.5703125 C-652.91018311 984.28091797 -654.15630371 983.99152344 -655.44018555 983.69335938 C-656.10641937 983.54133057 -656.7726532 983.38930176 -657.45907593 983.23266602 C-676.58232003 978.83098382 -695.0533786 972.72693107 -713.5390625 966.19140625 C-714.5919043 965.82015625 -715.64474609 965.44890625 -716.72949219 965.06640625 C-762.18619962 948.84205337 -805.22560728 925.50350754 -843.5390625 896.19140625 C-844.17779297 895.70575195 -844.81652344 895.22009766 -845.47460938 894.71972656 C-864.68603683 880.07024426 -884.20368756 863.79080069 -899.9140625 845.37890625 C-902.48655223 842.38910152 -905.11896365 839.46930732 -907.7890625 836.56640625 C-930.86848141 810.91394402 -949.58531313 781.08954992 -964.60693359 750.10888672 C-965.48663614 748.29925241 -966.38152186 746.4970217 -967.27734375 744.6953125 C-987.89939449 702.17122167 -998.64694183 653.41227643 -999.5390625 606.19140625 C-999.55952637 605.32950684 -999.57999023 604.46760742 -999.60107422 603.57958984 C-1001.6122758 507.78988161 -964.16814888 418.39550484 -898.48242188 349.20947266 C-894.54360807 345.11924214 -890.5633288 341.07077474 -886.56335449 337.04046631 C-885.56417389 336.03324393 -884.56647809 335.02454594 -883.57043457 334.01422119 C-877.7047731 328.07346061 -871.680631 322.51321652 -865.14453125 317.30053711 C-862.6704042 315.29772756 -860.3029805 313.2198251 -857.9453125 311.08203125 C-853.50343808 307.09381185 -848.83455072 303.49203535 -844.0390625 299.94140625 C-843.16886475 299.29445801 -842.29866699 298.64750977 -841.40209961 297.98095703 C-838.78660892 296.04346826 -836.16455446 294.11531489 -833.5390625 292.19140625 C-832.80059082 291.6490332 -832.06211914 291.10666016 -831.30126953 290.54785156 C-819.77210086 282.12258684 -807.79070182 274.51936299 -795.5390625 267.19140625 C-794.302771 266.44938965 -794.302771 266.44938965 -793.04150391 265.69238281 C-737.87661038 232.79780181 -674.88772447 208.92412994 -611.5390625 198.19140625 C-611.35899658 196.99318237 -611.35899658 196.99318237 -611.17529297 195.77075195 C-603.47324005 145.26542755 -584.44949696 100.59274009 -549.16015625 63 C-546.71230172 60.37703814 -544.34154217 57.70139624 -541.9765625 55.00390625 C-537.4810983 50.00806353 -532.61780324 45.58440985 -527.5390625 41.19140625 C-526.47753088 40.25558672 -525.41635 39.31936925 -524.35546875 38.3828125 C-461.58489404 -16.65227051 -378.2463747 -45.03836476 0 0 Z M-280.5390625 -37.80859375 C-281.24216553 -37.72138062 -281.94526855 -37.63416748 -282.66967773 -37.54431152 C-362.36482213 -27.58800688 -444.55613941 -2.44943519 -507.5390625 49.19140625 C-508.31950928 49.82973389 -508.31950928 49.82973389 -509.11572266 50.48095703 C-547.40265848 81.93380667 -578.89012366 121.33446094 -591.8515625 169.87890625 C-592.09414795 170.78012207 -592.3367334 171.68133789 -592.58666992 172.60986328 C-594.56576147 180.39890721 -595.59097524 188.22140009 -596.5390625 196.19140625 C-590.54175994 195.54827923 -584.54628008 194.89070288 -578.55200195 194.2199707 C-576.51467389 193.9940322 -574.47691127 193.77197578 -572.4387207 193.55395508 C-569.50087254 193.23900628 -566.56489551 192.90990429 -563.62890625 192.578125 C-562.27224098 192.43729744 -562.27224098 192.43729744 -560.88816833 192.29362488 C-552.98395572 191.3760473 -547.40217957 189.32380086 -541.3515625 183.94140625 C-521.59696369 166.87477043 -499.58910555 152.10962121 -477.5390625 138.19140625 C-476.75515137 137.69318359 -475.97124023 137.19496094 -475.16357422 136.68164062 C-453.62195142 123.01549557 -431.31118145 110.6811191 -408.5390625 99.19140625 C-407.4032373 98.6180957 -406.26741211 98.04478516 -405.09716797 97.45410156 C-375.7784606 82.72037799 -345.51542923 70.01870657 -314.5390625 59.19140625 C-313.8815802 58.96128845 -313.2240979 58.73117065 -312.54669189 58.49407959 C-238.09768573 32.49008814 -160.67860466 17.27897475 -10.5390625 9.19140625 C-13.09134663 6.63912212 -15.9629687 5.5774735 -19.23828125 4.20703125 C-19.92841812 3.91483704 -20.61855499 3.62264282 -21.3296051 3.32159424 C-23.62554684 2.35407566 -25.925428 1.3965051 -28.2265625 0.44140625 C-29.41529968 -0.0534729 -29.41529968 -0.0534729 -30.62805176 -0.55834961 C-69.29469737 -16.60457286 -108.92532459 -30.28222956 -150.3515625 -37.05859375 C-151.26736084 -37.20965576 -152.18315918 -37.36071777 -153.12670898 -37.51635742 C-156.25936517 -37.99945731 -159.39369428 -38.41599179 -162.5390625 -38.80859375 C-163.58134506 -38.93939835 -163.58134506 -38.93939835 -164.64468384 -39.07284546 C-180.78113289 -41.02810752 -196.86401242 -41.16670449 -213.1015625 -41.12109375 C-214.46025583 -41.11917009 -215.81894927 -41.1173296 -217.17764282 -41.11557007 C-238.41622842 -41.07562904 -259.45208822 -40.46373776 -280.5390625 -37.80859375 Z M-394.5390625 121.19140625 C-395.6724707 121.75682129 -396.80587891 122.32223633 -397.97363281 122.90478516 C-433.67794753 140.79775911 -470.75311452 161.54919062 -501.5390625 187.19140625 C-501.5390625 187.52140625 -501.5390625 187.85140625 -501.5390625 188.19140625 C-500.60562012 188.21122559 -499.67217773 188.23104492 -498.71044922 188.25146484 C-409.39729613 190.22891814 -315.71202597 202.86952304 -238.5390625 260.19140625 C-237.97558105 260.61212402 -237.41209961 261.0328418 -236.83154297 261.46630859 C-227.12345691 268.74122186 -218.27135424 276.78173613 -209.5390625 285.19140625 C-208.34796875 286.320625 -208.34796875 286.320625 -207.1328125 287.47265625 C-201.78318269 292.65245654 -197.11374905 298.32339152 -192.5390625 304.19140625 C-192.10158691 304.7524707 -191.66411133 305.31353516 -191.21337891 305.89160156 C-180.79575176 319.36452284 -172.96469936 333.9103529 -165.5390625 349.19140625 C-143.27817085 339.98738374 -125.80791275 307.70375853 -116.5390625 287.19140625 C-104.63000704 258.104406 -103.42874097 223.39494203 -115.5390625 194.19140625 C-126.72578052 169.25327334 -145.01907921 153.85496587 -169.5390625 142.19140625 C-168.2190625 140.21140625 -166.8990625 138.23140625 -165.5390625 136.19140625 C-148.07794408 138.60553815 -130.32332556 155.58601549 -119.6171875 168.51171875 C-110.29669201 181.12431585 -104.189682 195.01900031 -100.5390625 210.19140625 C-100.30574219 211.14144531 -100.07242187 212.09148437 -99.83203125 213.0703125 C-92.65286892 246.90017818 -100.48961243 284.67579925 -118.9765625 313.62890625 C-130.01005645 330.20793021 -143.81427105 348.04154528 -160.5390625 359.19140625 C-160.06106147 363.36517134 -159.29421796 367.32765798 -158.234375 371.39453125 C-155.56595012 381.65954539 -153.37357106 391.42345065 -152.70898438 402.03588867 C-152.33840677 413.80305245 -152.33840677 413.80305245 -146.35205078 423.35888672 C-144.08649591 425.06345953 -141.75021996 426.5844304 -139.32080078 428.04443359 C-136.2776143 430.0034484 -133.72233829 432.45975111 -131.1015625 434.94140625 C-130.56869629 435.43737305 -130.03583008 435.93333984 -129.48681641 436.44433594 C-117.53973988 447.66550509 -107.14935042 459.93296799 -97.5390625 473.19140625 C-97.05840332 473.85253418 -96.57774414 474.51366211 -96.08251953 475.19482422 C-86.34420678 488.69803523 -77.56854802 503.08383792 -70.5390625 518.19140625 C-66.15708764 516.60554868 -63.66998899 513.16496742 -60.7890625 509.69140625 C-60.25466553 509.05702637 -59.72026855 508.42264648 -59.16967773 507.76904297 C-55.62211379 503.54149806 -52.14032493 499.26380268 -48.71875 494.93359375 C-46.47169469 492.1066532 -44.19481363 489.30596611 -41.91210938 486.5078125 C-32.33774236 474.77006012 -23.03073744 462.83313099 -13.73730469 450.87255859 C-7.92923812 443.3998103 -2.08097007 435.95912233 3.77441406 428.5234375 C9.35900892 421.43005128 14.92183967 414.32039555 20.4609375 407.19140625 C28.89743163 396.33600125 37.37930863 385.52126249 45.98095703 374.79614258 C49.33234612 370.61367396 52.65601216 366.41066252 55.9609375 362.19140625 C60.26357003 356.69842005 64.61031091 351.2424201 68.97827148 345.80126953 C71.89715891 342.16080104 74.78839811 338.50085065 77.65625 334.82006836 C82.97185154 328.00186017 88.46683224 321.36603341 94.09033203 314.80029297 C95.46209174 313.19005134 96.82077175 311.5696649 98.17578125 309.9453125 C103.72164192 303.30820169 109.43546314 296.87134278 115.34375 290.5546875 C117.78943689 287.93907695 120.16685611 285.26872825 122.54296875 282.58984375 C127.63759129 276.91832072 132.98195226 271.51903838 138.3815918 266.14038086 C140.02835154 264.49900829 141.66965845 262.85231806 143.31054688 261.20507812 C148.85625048 255.65582317 154.48978164 250.28462781 160.4609375 245.19140625 C162.36381538 243.46999487 164.26016807 241.74132962 166.1484375 240.00390625 C166.64827148 239.54467773 167.14810547 239.08544922 167.66308594 238.61230469 C170.39402297 236.10146797 173.11843375 233.58365678 175.83984375 231.0625 C181.64334433 225.68730514 187.45946201 220.34624502 193.4609375 215.19140625 C194.4509375 214.33417969 195.4409375 213.47695313 196.4609375 212.59375 C216.30586288 195.44930566 236.57853695 179.56611281 258.49755859 165.15722656 C259.07441406 164.77718475 259.65126953 164.39714294 260.24560547 164.00558472 C261.83196567 162.9615178 263.42055599 161.92084162 265.00927734 160.88037109 C267.49828261 159.27482822 267.49828261 159.27482822 269.4609375 157.19140625 C268.295625 156.88589844 267.1303125 156.58039063 265.9296875 156.265625 C244.20397706 150.30853909 224.79832321 140.16164782 205.40576172 128.88720703 C201.3710698 126.56379714 197.29817322 124.31186917 193.22509766 122.05664062 C179.44280097 114.4162447 165.92626973 106.37465859 152.4609375 98.19140625 C151.26748479 97.46717074 150.07396084 96.74305261 148.88037109 96.01904297 C142.82251335 92.34439359 136.76628544 88.66706474 130.7109375 84.98828125 C129.61910156 84.32505859 128.52726562 83.66183594 127.40234375 82.97851562 C125.66507446 81.92300341 123.92800935 80.86715479 122.19140625 79.81054688 C101.54154369 67.25660803 80.47107462 55.40612877 59.29638672 43.76464844 C57.47669279 42.75499563 55.66495599 41.73078751 53.86376953 40.68847656 C53.08243652 40.23827148 52.30110352 39.78806641 51.49609375 39.32421875 C50.49848022 38.73858154 50.49848022 38.73858154 49.48071289 38.14111328 C44.68058882 35.8840744 39.44344483 35.9203458 34.2265625 35.65625 C33.00697845 35.59151237 33.00697845 35.59151237 31.76275635 35.52546692 C29.07909735 35.38670333 26.39516103 35.25627028 23.7109375 35.12890625 C22.78112061 35.08471558 21.85130371 35.0405249 20.89331055 34.99499512 C-69.67824909 30.79879337 -160.94273723 40.31551921 -394.5390625 121.19140625 Z M76.4609375 40.19140625 C81.14496977 44.32088079 86.46470761 47.12454834 91.8984375 50.12890625 C102.45402545 56.03233033 112.88858088 62.11262245 123.27978516 68.29980469 C126.84096941 70.41738378 130.40661167 72.52733995 133.97265625 74.63671875 C146.44918527 82.02129424 158.90248232 89.43739793 171.27352905 96.99758911 C190.43232923 108.6994893 209.91555516 119.64597753 229.89990234 129.875 C232.20540389 131.06005857 234.50050434 132.26263981 236.79296875 133.47265625 C243.71099177 137.08677658 250.72286265 140.23642092 258.0234375 143.00390625 C258.74241211 143.28210205 259.46138672 143.56029785 260.20214844 143.84692383 C275.22682081 149.3202926 290.11182048 149.70495938 305.8984375 149.87890625 C307.99806712 149.91215647 310.0976774 149.94665293 312.19726562 149.98242188 C317.28504766 150.06642995 322.37279255 150.13364807 327.4609375 150.19140625 C326.67614014 150.4702063 326.67614014 150.4702063 325.87548828 150.75463867 C305.97270346 157.73060506 305.97270346 157.73060506 289.5234375 170.56640625 C288.74492432 171.36151611 287.96641113 172.15662598 287.16430664 172.97583008 C280.50786178 179.89900262 274.68690862 187.14183108 269.4609375 195.19140625 C269.08743164 195.7632666 268.71392578 196.33512695 268.32910156 196.92431641 C222.43213362 268.19177191 202.07610069 356.59402263 177.86749268 436.92486572 C171.55741361 457.8430716 164.9286339 478.64970236 158.17163086 499.42700195 C157.80387543 500.56031448 157.43612 501.69362701 157.05722046 502.86128235 C156.37335663 504.96716639 155.68711627 507.07228089 154.99795532 509.17643738 C153.27515905 514.4797235 151.73908274 519.76319432 150.4609375 525.19140625 C156.58482089 520.06734056 162.30963944 514.76036837 167.48461914 508.66821289 C172.26687163 503.18091246 177.43238439 498.07558246 182.58203125 492.9375 C183.65159914 491.86725658 184.72101871 490.79686491 185.79029846 489.72633362 C188.02011974 487.49504712 190.2517159 485.26555568 192.48461914 483.03735352 C195.32658182 480.20108737 198.16402992 477.36035394 201.00015163 474.51824856 C203.20411976 472.31064292 205.41049369 470.10545404 207.61757088 467.90095711 C208.66394199 466.85524646 209.70958924 465.8088109 210.75445366 464.76159477 C215.98795149 459.51890104 221.24517903 454.35300741 226.88685608 449.54530334 C228.84960047 447.8571099 230.66329185 446.05325353 232.4609375 444.19140625 C235.54339255 441.06729641 238.73603522 438.16439537 242.0625 435.3046875 C245.25240703 432.49403651 248.35349641 429.59261211 251.4609375 426.69140625 C256.87959033 421.64146573 262.35870385 416.69545203 267.99121094 411.88427734 C269.77313896 410.36206558 271.55462351 408.83933651 273.3359375 407.31640625 C273.94477783 406.79643066 274.55361816 406.27645508 275.1809082 405.74072266 C278.71794011 402.71195849 282.20520235 399.63961162 285.6484375 396.50390625 C289.83463051 392.70633376 294.16112764 389.12074681 298.5546875 385.56640625 C301.66486654 383.02475456 304.71989337 380.42539771 307.7734375 377.81640625 C312.73336699 373.59095469 317.79938029 369.52972321 322.9440918 365.53222656 C327.73265437 361.7983467 332.4142767 357.94510864 337.0859375 354.06640625 C342.63683286 349.4691105 348.24304507 345.00348951 354.046875 340.7265625 C357.75683606 337.9894612 361.40902178 335.17774473 365.06835938 332.37353516 C373.51756191 325.9024716 382.0073382 319.52317794 390.72119141 313.41308594 C392.57990021 312.10786859 394.4329134 310.79484433 396.28515625 309.48046875 C400.66880585 306.37230274 405.06349269 303.28001491 409.4609375 300.19140625 C410.36086426 299.5586377 411.26079102 298.92586914 412.18798828 298.27392578 C423.71822998 290.17588734 435.28992877 282.18726826 447.18701172 274.63671875 C449.75295873 273.00579688 452.31208261 271.36443822 454.87109375 269.72265625 C472.29402177 258.56252001 490.03924465 248.06851384 507.92822266 237.67431641 C510.45007354 236.19776712 512.95787116 234.69954166 515.4609375 233.19140625 C508.49701852 224.57813804 500.13658776 217.62904658 491.546875 210.6875 C489.31153933 208.87942469 487.08905545 207.06027862 484.875 205.2265625 C474.68584329 196.81730672 464.17575188 188.91687746 453.4609375 181.19140625 C452.74292969 180.67191406 452.02492188 180.15242187 451.28515625 179.6171875 C381.83758917 129.49640161 303.5954511 93.10842268 76.4609375 40.19140625 Z M730.4609375 154.19140625 C730.4609375 154.52140625 730.4609375 154.85140625 730.4609375 155.19140625 C741.75487082 154.62872408 752.94807041 153.70726565 764.1796875 152.40625 C765.74918927 152.22756743 767.31871932 152.04913307 768.88827515 151.8709259 C773.05364405 151.39609539 777.21814223 150.91404728 781.38234711 150.42912292 C783.9795823 150.1267355 786.57697118 149.82569444 789.17437744 149.52478027 C811.92538802 146.8841723 834.65034056 144.09823903 857.3359375 140.94140625 C858.46008057 140.78727264 859.58422363 140.63313904 860.74243164 140.47433472 C899.69379207 136.93571257 899.69379207 136.93571257 932.0234375 118.12890625 C933.94374997 114.28778427 933.94374997 114.28778427 933.4609375 110.19140625 C927.29959057 103.17431669 917.42061358 101.17735351 908.4609375 100.19140625 C847.32627138 96.86076131 780.841136 120.62035247 730.4609375 154.19140625 Z M671.83203125 176.30859375 C670.89375488 176.5806665 669.95547852 176.85273926 668.98876953 177.13305664 C667.45905518 177.5950647 667.45905518 177.5950647 665.8984375 178.06640625 C664.82706543 178.38665771 663.75569336 178.70690918 662.65185547 179.03686523 C623.81656778 190.80487762 586.63151243 206.87366008 550.4609375 225.19140625 C552.0679579 228.6310094 553.71684338 230.49925211 556.6484375 232.94140625 C560.31969372 236.10910899 563.49683108 239.39609324 566.62109375 243.09375 C570.0340449 246.98494908 573.76515778 250.57105061 577.4609375 254.19140625 C582.34256908 250.6498304 587.00481832 246.92467773 591.5859375 243.00390625 C596.66201132 238.66607638 601.83343444 234.48103495 607.1015625 230.37915039 C610.68404479 227.58966548 614.23592175 224.76751513 617.76586914 221.91186523 C626.68761881 214.70385742 635.85159966 207.83672899 645.05224609 200.99023438 C647.28584717 199.32216497 649.51029968 197.64291828 651.73046875 195.95703125 C660.78980035 189.08662708 670.0395031 182.55588587 679.4609375 176.19140625 C676.06611856 175.05979994 675.17177023 175.33125248 671.83203125 176.30859375 Z M-529.5390625 209.19140625 C-530.85545224 210.3188064 -532.18782197 211.42831902 -533.546875 212.50390625 C-534.58897793 213.39620089 -535.62816461 214.29191539 -536.6640625 215.19140625 C-537.23334473 215.68213623 -537.80262695 216.17286621 -538.38916016 216.6784668 C-543.22151888 220.86637691 -547.9412963 225.17042757 -552.625 229.5234375 C-554.72866071 231.44944322 -556.84785265 233.31713263 -559.01171875 235.171875 C-564.77484048 240.20504683 -570.27039055 245.51557856 -575.7331543 250.87060547 C-576.98705017 252.09255182 -578.24892303 253.30636165 -579.51831055 254.51220703 C-581.3689041 256.27180337 -583.19214454 258.05606968 -585.01171875 259.84765625 C-585.58237564 260.38015991 -586.15303253 260.91266357 -586.74098206 261.46130371 C-588.54344784 263.18610629 -588.54344784 263.18610629 -590.5390625 266.19140625 C-590.47688028 270.32889435 -589.53663137 273.78271529 -587.9375 277.57421875 C-587.45531006 278.72627808 -587.45531006 278.72627808 -586.96337891 279.90161133 C-586.61710449 280.69849365 -586.27083008 281.49537598 -585.9140625 282.31640625 C-585.5536084 283.15389404 -585.1931543 283.99138184 -584.82177734 284.85424805 C-577.98759537 300.5067778 -569.07004833 314.45350746 -557.921875 327.40014648 C-556.37837385 329.20822524 -554.88143141 331.05754517 -553.44384766 332.95092773 C-550.05551455 336.99455516 -547.56323583 339.9616652 -542.15332031 340.57568359 C-538.88072903 340.2239646 -535.72125789 339.71012394 -532.51202393 338.9798584 C-529.62609458 338.32514461 -526.72055939 337.80080056 -523.81027222 337.26687622 C-522.30010114 336.98881317 -520.79107288 336.70447402 -519.28323364 336.41403198 C-511.6164319 334.95106242 -503.93445844 334.12125795 -496.1640625 333.44140625 C-495.50542206 333.38202881 -494.84678162 333.32265137 -494.16818237 333.26147461 C-405.57876268 325.35507927 -309.18324012 335.14785882 -227.625 371.8671875 C-226.79581055 372.23924316 -225.96662109 372.61129883 -225.11230469 372.99462891 C-223.27758256 373.84793136 -221.46207164 374.743058 -219.66113281 375.66552734 C-214.24174752 378.52664422 -214.24174752 378.52664422 -208.3125 378.75 C-206.93964844 377.97849609 -206.93964844 377.97849609 -205.5390625 377.19140625 C-203.79496094 376.31162109 -203.79496094 376.31162109 -202.015625 375.4140625 C-200.72749726 374.70168377 -199.44381387 373.98122527 -198.1640625 373.25390625 C-197.48085938 372.86855713 -196.79765625 372.48320801 -196.09375 372.08618164 C-188.26293596 367.58399944 -180.89383482 362.4238573 -173.5390625 357.19140625 C-173.99411629 350.89473176 -176.95946338 345.85691931 -179.8515625 340.37890625 C-180.38773193 339.36006348 -180.92390137 338.3412207 -181.47631836 337.29150391 C-186.45361173 328.02875295 -192.09271278 319.48842505 -198.5390625 311.19140625 C-198.96445312 310.63904297 -199.38984375 310.08667969 -199.828125 309.51757812 C-211.52312261 294.53106389 -225.51449837 280.55828221 -240.89599609 269.38574219 C-242.54760651 268.18519565 -244.17835535 266.95982885 -245.80859375 265.73046875 C-255.57808125 258.4606858 -265.98801447 252.25088608 -276.5390625 246.19140625 C-277.24369629 245.78535156 -277.94833008 245.37929688 -278.67431641 244.9609375 C-339.85081211 210.11337834 -413.71604722 198.50316427 -483.17919922 197.51171875 C-485.75292226 197.46483499 -488.3263433 197.39646134 -490.89892578 197.30664062 C-507.2943711 196.74668404 -518.13344928 196.73350237 -529.5390625 209.19140625 Z M-571.97265625 201.93359375 C-573.26107422 202.11277344 -574.54949219 202.29195313 -575.87695312 202.4765625 C-576.54960205 202.57340332 -577.22225098 202.67024414 -577.9152832 202.77001953 C-579.96408779 203.06461254 -582.01406048 203.34950702 -584.06445312 203.6328125 C-590.89400949 204.50202333 -590.89400949 204.50202333 -597.5390625 206.19140625 C-597.5390625 214.77140625 -597.5390625 223.35140625 -597.5390625 232.19140625 C-594.08358215 230.46366607 -592.51076969 229.39589303 -589.9296875 226.7421875 C-589.25679687 226.05833984 -588.58390625 225.37449219 -587.890625 224.66992188 C-587.19710938 223.95513672 -586.50359375 223.24035156 -585.7890625 222.50390625 C-578.73139023 215.26509601 -571.33408017 208.62229582 -563.5390625 202.19140625 C-566.49488632 200.71349434 -568.71976539 201.4768227 -571.97265625 201.93359375 Z M-826.49511719 299.65771484 C-828.55307902 301.20192367 -830.62591267 302.7239997 -832.703125 304.2421875 C-841.67369849 310.83174855 -850.20895067 317.81133585 -858.5390625 325.19140625 C-859.40917969 325.96097656 -860.27929688 326.73054688 -861.17578125 327.5234375 C-863.64509868 329.7303154 -866.09546239 331.95608864 -868.5390625 334.19140625 C-869.05355957 334.66078613 -869.56805664 335.13016602 -870.09814453 335.61376953 C-878.66915692 343.44013277 -887.1357923 351.2631615 -894.70703125 360.08203125 C-896.69217837 362.36770171 -898.7394608 364.58842003 -900.7890625 366.81640625 C-906.37218142 373.02091783 -911.48672375 379.55502198 -916.5390625 386.19140625 C-917.36180664 387.26938477 -917.36180664 387.26938477 -918.20117188 388.36914062 C-931.16516655 405.43473813 -942.48192942 423.27087806 -952.5390625 442.19140625 C-952.88388672 442.83577637 -953.22871094 443.48014648 -953.58398438 444.14404297 C-971.34359618 477.59477378 -982.89793295 514.61297835 -987.5390625 552.19140625 C-987.6935083 553.39458496 -987.6935083 553.39458496 -987.85107422 554.62207031 C-998.94648366 644.89277902 -971.45334882 737.43774214 -916.2890625 809.19140625 C-914.71386352 811.19781912 -913.13094728 813.19820598 -911.5390625 815.19140625 C-910.80300781 816.12082031 -910.06695313 817.05023437 -909.30859375 818.0078125 C-904.46117858 824.0391981 -899.34426198 829.7634485 -894.08203125 835.4296875 C-892.07735176 837.60681254 -890.1378105 839.80853393 -888.2265625 842.06640625 C-881.0529265 850.33168251 -873.10928368 858.26001953 -864.74609375 865.3203125 C-862.94688831 866.84565658 -861.18308952 868.39598255 -859.42578125 869.96875 C-849.25855701 879.01377336 -838.52941144 887.1764181 -827.5390625 895.19140625 C-826.80397461 895.7318457 -826.06888672 896.27228516 -825.31152344 896.82910156 C-814.14344933 905.01902257 -802.53033742 912.27067244 -790.5390625 919.19140625 C-789.8063916 919.61631348 -789.0737207 920.0412207 -788.31884766 920.47900391 C-765.58519767 933.59517105 -741.9770437 944.64537377 -717.5390625 954.19140625 C-716.49991699 954.59842773 -715.46077148 955.00544922 -714.39013672 955.42480469 C-701.02533004 960.59562174 -687.43183321 964.81359265 -673.6640625 968.75390625 C-672.88142029 968.97822327 -672.09877808 969.20254028 -671.29241943 969.43365479 C-669.06636234 970.0684896 -666.83845764 970.69619294 -664.609375 971.3203125 C-663.93867981 971.51044418 -663.26798462 971.70057587 -662.57696533 971.89646912 C-659.79112198 972.66623449 -657.44651229 973.19140625 -654.5390625 973.19140625 C-655.82184043 970.48653077 -657.22851043 968.10628085 -659.015625 965.70703125 C-659.51304199 965.03212646 -660.01045898 964.35722168 -660.52294922 963.66186523 C-661.33530029 962.56273804 -661.33530029 962.56273804 -662.1640625 961.44140625 C-707.1813983 899.68066926 -743.78380977 827.81262513 -758.94140625 752.34375 C-761.52659658 739.64839371 -764.33370149 730.26640339 -772.22460938 719.98730469 C-804.21296541 676.2825597 -809.99562485 610.97860246 -802.03515625 559.15332031 C-798.49216868 538.00001069 -791.91719446 517.03986678 -781.625 498.18212891 C-780.45225707 496.03227597 -779.30862404 493.86810007 -778.1640625 491.703125 C-772.96045818 481.98008826 -767.21517106 472.96128102 -760.5390625 464.19140625 C-760.11544434 463.62502441 -759.69182617 463.05864258 -759.25537109 462.47509766 C-752.90919936 454.00478419 -746.01174693 446.21729073 -738.703125 438.56640625 C-737.64784028 437.44196644 -736.59311142 436.31700457 -735.5390625 435.19140625 C-734.67925781 434.28648437 -733.81945312 433.3815625 -732.93359375 432.44921875 C-729.47602842 428.21028273 -727.67897393 423.07326039 -725.6015625 418.06640625 C-715.30130459 394.05897719 -703.20813277 371.40992388 -689.5390625 349.19140625 C-688.98444336 348.28503418 -688.42982422 347.37866211 -687.85839844 346.44482422 C-673.80064435 323.53895433 -657.85959821 301.74173107 -640.5390625 281.19140625 C-639.64965036 280.12767876 -638.76033309 279.06387195 -637.87109375 278 C-632.22848859 271.27096089 -626.44831269 264.68843266 -620.5390625 258.19140625 C-618.21885913 255.60132462 -615.89983708 253.01019603 -613.58203125 250.41796875 C-611.5390625 248.19140625 -611.5390625 248.19140625 -609.234375 246.375 C-607.18574793 244.19908983 -607.18574793 244.19908983 -607.55078125 240.75 C-607.75626302 239.37320464 -607.98291506 237.9994624 -608.2265625 236.62890625 C-608.45235768 235.11933745 -608.67217522 233.6088652 -608.88671875 232.09765625 C-609.00031738 231.30488281 -609.11391602 230.51210938 -609.23095703 229.6953125 C-609.76526404 225.35311545 -609.96442769 220.99731271 -610.1640625 216.62890625 C-610.20362061 215.789646 -610.24317871 214.95038574 -610.28393555 214.08569336 C-610.37367213 212.12113979 -610.45710208 210.15629959 -610.5390625 208.19140625 C-680.69756375 208.19140625 -773.10514279 259.48220255 -826.49511719 299.65771484 Z M-599.5390625 276.19140625 C-606.30961202 283.13659296 -612.49426927 290.61513017 -618.5390625 298.19140625 C-618.94705078 298.69978027 -619.35503906 299.2081543 -619.77539062 299.73193359 C-642.31567008 327.85566395 -661.8708159 357.80428581 -679.5390625 389.19140625 C-678.8790625 389.52140625 -678.2190625 389.85140625 -677.5390625 390.19140625 C-675.82117595 389.51721851 -675.82117595 389.51721851 -673.96875 388.3828125 C-672.88460815 387.7630957 -672.88460815 387.7630957 -671.77856445 387.13085938 C-670.60813599 386.44926758 -670.60813599 386.44926758 -669.4140625 385.75390625 C-667.76048613 384.81528793 -666.10551264 383.87912709 -664.44921875 382.9453125 C-663.61793457 382.47625488 -662.78665039 382.00719727 -661.93017578 381.52392578 C-633.95250368 365.93252959 -603.75767382 355.09161606 -572.8828125 346.91796875 C-567.68806039 345.53589291 -562.61484436 343.95925335 -557.5390625 342.19140625 C-558.39886719 341.20140625 -559.25867188 340.21140625 -560.14453125 339.19140625 C-576.67140578 319.88824937 -587.82081406 299.05019452 -598.5390625 276.19140625 C-598.8690625 276.19140625 -599.1990625 276.19140625 -599.5390625 276.19140625 Z M260.875 181.97265625 C259.95033936 182.56320801 259.02567871 183.15375977 258.07299805 183.76220703 C257.08726807 184.39884277 256.10153809 185.03547852 255.0859375 185.69140625 C254.08022705 186.33706543 253.0745166 186.98272461 252.03833008 187.64794922 C249.17521711 189.48969613 246.31686376 191.33853961 243.4609375 193.19140625 C242.82172363 193.60551758 242.18250977 194.01962891 241.52392578 194.44628906 C219.61084329 208.69618428 199.03239429 224.55040384 179.71875 242.15625 C177.68850325 243.9862821 175.61589992 245.74606839 173.5234375 247.50390625 C168.54125443 251.84322699 164.19683987 256.78619883 159.79833984 261.70117188 C158.56524281 263.07518143 157.32025889 264.43849841 156.07421875 265.80078125 C151.55625185 270.75240989 147.23547553 275.82520292 143.0234375 281.0390625 C141.13072837 283.38000506 139.20843575 285.69389837 137.2734375 288 C129.17111394 297.6828165 121.54447866 307.62978714 114.15039062 317.86230469 C112.54297198 320.07831247 110.91908412 322.28105602 109.2890625 324.48046875 C95.9360453 342.58935509 83.92642856 361.66394972 72.00048828 380.73193359 C70.3339573 383.39426044 68.66123938 386.05264511 66.98828125 388.7109375 C51.04471901 414.08494719 35.65540382 439.77694669 20.51516724 465.63720703 C-9.06541178 516.16002545 -9.06541178 516.16002545 -23.85302734 539.52636719 C-25.48894511 542.11218798 -27.11850115 544.70190171 -28.74609375 547.29296875 C-29.25503174 548.1017749 -29.76396973 548.91058105 -30.28833008 549.74389648 C-31.27238772 551.30779092 -32.2553374 552.87238319 -33.23706055 554.43774414 C-35.67178012 558.30288749 -38.15477374 562.12288265 -40.7265625 565.8984375 C-41.24057617 566.6622876 -41.75458984 567.4261377 -42.28417969 568.21313477 C-43.25549871 569.65136135 -44.23969366 571.08101422 -45.23925781 572.49975586 C-50.53251002 580.37577719 -48.20662694 587.88892173 -46.6640625 596.75390625 C-41.02174774 631.24964544 -39.78169302 667.60477781 -45.5390625 702.19140625 C-45.72178711 703.31482422 -45.90451172 704.43824219 -46.09277344 705.59570312 C-54.38215834 754.62421614 -75.78548962 800.03731377 -107.17382812 838.51757812 C-108.05516329 839.59812782 -108.93182646 840.68251296 -109.80273438 841.77148438 C-116.84209409 850.54597487 -124.67641744 858.5369611 -132.6015625 866.50390625 C-133.36175186 867.27199615 -133.36175186 867.27199615 -134.13729858 868.05560303 C-140.93444091 874.90728515 -147.97507131 881.17829709 -155.5390625 887.19140625 C-156.64357248 888.11996856 -157.74456834 889.05275041 -158.83984375 889.9921875 C-177.95286088 905.93209673 -199.66810723 919.40375896 -221.5390625 931.19140625 C-222.86019043 931.91650391 -222.86019043 931.91650391 -224.20800781 932.65625 C-299.30292532 973.79683092 -384.79143016 991.63299221 -469.5390625 997.19140625 C-470.61236816 997.26343262 -471.68567383 997.33545898 -472.79150391 997.40966797 C-510.15133639 999.78762793 -548.39685489 999.07412042 -585.59741211 994.80126953 C-589.95685303 994.30071688 -594.16078306 994.111176 -598.5390625 994.19140625 C-590.10332978 1004.26742034 -581.06056507 1013.76140323 -571.7890625 1023.06640625 C-571.09256592 1023.76749512 -570.39606934 1024.46858398 -569.6784668 1025.19091797 C-565.71934637 1029.13831531 -561.65680535 1032.90120596 -557.42333984 1036.55224609 C-554.62475184 1038.98677834 -551.93162303 1041.5291312 -549.2265625 1044.06640625 C-544.40804539 1048.54882899 -539.46723317 1052.80576355 -534.33203125 1056.92578125 C-531.8363142 1058.95027899 -529.39200487 1061.02406878 -526.95825195 1063.12231445 C-519.10526876 1069.87509244 -510.88800865 1076.06845894 -502.5390625 1082.19140625 C-501.85247559 1082.69897461 -501.16588867 1083.20654297 -500.45849609 1083.72949219 C-467.3250038 1108.20704301 -432.20757756 1129.47396239 -395.5390625 1148.19140625 C-394.79285645 1148.57280762 -394.04665039 1148.95420898 -393.27783203 1149.34716797 C-388.71832518 1151.67029937 -384.1352558 1153.94188911 -379.5390625 1156.19140625 C-378.87181152 1156.52140625 -378.20456055 1156.85140625 -377.51708984 1157.19140625 C-352.29829453 1169.62710452 -326.06892368 1179.93123404 -299.5390625 1189.19140625 C-298.88228516 1189.42085937 -298.22550781 1189.6503125 -297.54882812 1189.88671875 C-251.64408999 1205.88449777 -204.58333876 1217.69568652 -156.5390625 1225.19140625 C-155.8428479 1225.3009967 -155.1466333 1225.41058716 -154.42932129 1225.52349854 C-131.89046233 1229.05967654 -109.28555324 1231.43702143 -86.55859375 1233.39453125 C-85.79822311 1233.46096832 -85.03785248 1233.5274054 -84.25444031 1233.59585571 C-70.20257003 1234.77317432 -56.20644591 1235.35672708 -42.109375 1235.39453125 C-40.4795377 1235.40155433 -38.84970066 1235.40864114 -37.21986389 1235.41578674 C-32.03459276 1235.43519948 -26.8493663 1235.44022157 -21.6640625 1235.44140625 C-20.78000858 1235.44184811 -19.89595467 1235.44228996 -18.98511124 1235.44274521 C7.44609681 1235.4496724 33.73993018 1235.2153755 60.05267334 1232.44464111 C62.57170159 1232.17975914 65.09165405 1231.92523595 67.61181641 1231.67138672 C157.09921702 1222.53635887 244.96056471 1199.60607646 377.99267578 1136.59765625 C380.52451459 1135.15518429 383.0677617 1133.73457638 385.61328125 1132.31640625 C405.87637229 1120.96239867 425.45689378 1108.54054474 444.4609375 1095.19140625 C445.10740234 1094.73926758 445.75386719 1094.28712891 446.41992188 1093.82128906 C454.3775464 1088.24596279 462.1528791 1082.4618921 469.80908203 1076.47998047 C471.5000659 1075.16088309 473.19698129 1073.84969557 474.89453125 1072.5390625 C483.31208897 1066.01363252 491.43172873 1059.18723101 499.4609375 1052.19140625 C500.60175781 1051.20333984 500.60175781 1051.20333984 501.765625 1050.1953125 C515.22052456 1038.49657453 528.3290355 1026.39953072 540.9609375 1013.81640625 C541.60691895 1013.17501709 542.25290039 1012.53362793 542.91845703 1011.87280273 C546.70482463 1008.07418311 550.29458186 1004.15654271 553.79980469 1000.09765625 C556.24350979 997.29335739 558.79177028 994.59168607 561.3359375 991.87890625 C565.76236789 987.11531577 569.99618423 982.25072474 574.06640625 977.17578125 C575.84334435 974.96113083 577.63589552 972.76648244 579.44921875 970.58203125 C606.61129928 937.75877522 629.36547906 901.21165215 648.4609375 863.19140625 C648.92064941 862.28132812 649.38036133 861.37125 649.85400391 860.43359375 C679.48079376 801.41122701 696.68304234 735.97534152 701.4609375 670.19140625 C701.51878418 669.44294434 701.57663086 668.69448242 701.63623047 667.92333984 C707.74770683 586.62438277 691.74647067 502.93850641 632.94677734 377.74560547 C631.60886586 375.44569913 630.29078498 373.13600839 628.98046875 370.8203125 C612.40277028 341.75924083 592.31415271 314.48749948 570.4609375 289.19140625 C569.23143109 287.75419682 568.00219648 286.31675475 566.7734375 284.87890625 C565.62875 283.54859375 565.62875 283.54859375 564.4609375 282.19140625 C561.5836382 283.50300683 559.45283451 284.92639326 557.16796875 287.10546875 C556.23573486 287.98730835 556.23573486 287.98730835 555.28466797 288.88696289 C554.28910889 289.84203735 554.28910889 289.84203735 553.2734375 290.81640625 C551.83473429 292.18239581 550.39592883 293.54827768 548.95703125 294.9140625 C548.21565918 295.62062988 547.47428711 296.32719727 546.71044922 297.05517578 C544.52420706 299.13132283 542.32557763 301.19324698 540.12109375 303.25 C532.70475576 310.1748939 525.37153523 317.15638248 518.27685547 324.41235352 C515.52956603 327.20450538 512.72528831 329.85805264 509.74964905 332.40687561 C505.52734788 336.08540194 501.54814566 339.96304144 497.59545898 343.92749023 C496.48403534 345.0362854 496.48403534 345.0362854 495.35015869 346.16748047 C492.9249447 348.58832773 490.50336656 351.01277374 488.08203125 353.4375 C486.38402143 355.1348353 484.68586325 356.8320222 482.98756409 358.52906799 C479.43808001 362.07708211 475.89039971 365.62688737 472.34399414 369.17797852 C467.81277474 373.71489475 463.27708034 378.24730639 458.7400198 382.77838039 C455.23537335 386.27940228 451.73312577 389.7828161 448.23158455 393.28694344 C446.56067224 394.95851977 444.88902523 396.62936205 443.21661186 398.29943657 C440.874311 400.63917972 438.53527026 402.98213597 436.19702148 405.32592773 C435.51474991 406.00617508 434.83247833 406.68642242 434.12953186 407.38728333 C430.26977992 411.26388456 426.58721874 415.24416215 423.01928806 419.39138889 C420.56873442 422.22197092 418.01319375 424.95280149 415.4609375 427.69140625 C411.04483762 432.45668296 406.6916737 437.259927 402.4609375 442.19140625 C402.04408691 442.67657715 401.62723633 443.16174805 401.19775391 443.66162109 C398.67813074 446.59461309 396.16189178 449.53047006 393.6484375 452.46875 C391.5486175 454.9230433 389.44441113 457.37345005 387.3359375 459.8203125 C381.2726301 466.86178989 375.31456255 473.97372545 369.4609375 481.19140625 C368.0449743 482.92114901 366.6282902 484.65030186 365.2109375 486.37890625 C364.46972656 487.28640625 363.72851562 488.19390625 362.96484375 489.12890625 C361.12247029 491.38229282 359.27560723 493.63165897 357.42578125 495.87890625 C351.46221429 503.14551304 345.65582634 510.49445291 340.0559082 518.04516602 C336.22822012 523.19915022 332.29729215 528.26467738 328.3359375 533.31640625 C322.97376537 540.17673633 317.79676677 547.12884192 312.80957031 554.265625 C311.31301772 556.40262842 309.80517406 558.5314285 308.296875 560.66015625 C291.92535434 583.82850915 276.16973606 607.477603 261.78662109 631.93896484 C260.82423765 633.57413052 259.85789501 635.20696803 258.88916016 636.83837891 C226.18915098 692.00630928 196.46947194 752.92475417 188.4609375 817.19140625 C188.31954346 818.25137817 188.31954346 818.25137817 188.17529297 819.33276367 C187.18004006 827.73365963 187.21732249 836.18123439 187.2109375 844.62890625 C187.21026276 845.43098511 187.20958801 846.23306396 187.20889282 847.05944824 C187.22483012 858.98531584 187.53663079 870.56613579 190.4609375 882.19140625 C190.62722656 882.86929199 190.79351563 883.54717773 190.96484375 884.24560547 C194.86669557 899.53869691 201.55196994 913.65960837 212.4609375 925.19140625 C213.12351562 925.90683594 213.78609375 926.62226562 214.46875 927.359375 C226.52781848 939.21210961 243.24821904 944.35051811 259.8359375 944.56640625 C282.75860492 944.34629478 303.18322327 935.58720197 321.4609375 922.19140625 C322.69312428 924.22089035 323.47768139 925.62809384 323.40625 928.03125 C321.94589623 931.36833939 319.18860514 933.00069867 316.2734375 935.00390625 C315.64630859 935.44041504 315.01917969 935.87692383 314.37304688 936.32666016 C292.17254897 951.42455122 265.984716 956.17243016 239.64501953 951.63671875 C221.41829826 947.92047243 206.42716475 939.38071817 193.4609375 926.19140625 C192.5740625 925.30324219 191.6871875 924.41507813 190.7734375 923.5 C165.03023333 896.54027246 158.53826531 859.50279543 159.17578125 823.57421875 C159.72594434 805.73420211 162.98519453 788.43381131 167.4609375 771.19140625 C167.67057129 770.38203613 167.88020508 769.57266602 168.09619141 768.73876953 C177.07876833 734.93136493 192.7662288 702.08919102 210.00927734 671.74609375 C211.5015119 669.12000186 212.97606062 666.48448954 214.44921875 663.84765625 C237.0106323 623.67170397 263.79660893 585.29693742 292.08154297 548.96533203 C293.68205384 546.90704672 295.27650985 544.84413014 296.87109375 542.78125 C303.28928604 534.48877958 309.76994656 526.26636438 316.4609375 518.19140625 C317.55264739 516.86244233 318.64374334 515.53297393 319.734375 514.203125 C326.46576327 506.00031422 333.24823727 497.8459704 340.12548828 489.76513672 C341.51183249 488.13143018 342.89144142 486.49223624 344.26953125 484.8515625 C349.17003874 479.02315327 354.14568304 473.2954357 359.2734375 467.6640625 C361.62618751 465.00461472 363.85871807 462.26911956 366.0859375 459.50390625 C369.14751475 455.71945659 372.30657251 452.22652611 375.80078125 448.84375 C377.50477976 447.14777031 379.07807833 445.38650929 380.6484375 443.56640625 C385.76889101 437.63805897 391.12955465 431.92923802 396.4609375 426.19140625 C397.05455078 425.55122559 397.64816406 424.91104492 398.25976562 424.25146484 C400.09602792 422.27159242 401.93439891 420.29369985 403.7734375 418.31640625 C404.33554932 417.71046631 404.89766113 417.10452637 405.47680664 416.48022461 C408.2450524 413.51003005 411.04819477 410.59496791 413.94140625 407.74609375 C416.28295084 405.42551611 418.48383649 403.04388111 420.62255859 400.53588867 C424.68604151 395.86697101 429.01369587 391.49463654 433.39453125 387.125 C434.64968285 385.86841331 434.64968285 385.86841331 435.93019104 384.58644104 C437.68961854 382.8263369 439.45029403 381.06747948 441.2121582 379.30981445 C443.89063161 376.63669653 446.56372623 373.95828374 449.23632812 371.27929688 C450.95540865 369.56087722 452.67479939 367.84276783 454.39453125 366.125 C455.18435898 365.33314804 455.97418671 364.54129608 456.78794861 363.72544861 C460.9605803 359.57017781 465.20538724 355.57061171 469.68788147 351.75038147 C471.52635401 350.13388821 473.24736486 348.43905894 474.9609375 346.69140625 C477.21891693 344.39814589 479.52090254 342.22712597 481.9609375 340.12890625 C486.02028669 336.63028428 489.92740899 332.98122708 493.8359375 329.31640625 C499.64857164 323.86943209 505.51686155 318.49504304 511.4609375 313.19140625 C513.10756517 311.7131239 514.75338328 310.23393936 516.3984375 308.75390625 C517.21957031 308.01527344 518.04070312 307.27664063 518.88671875 306.515625 C521.62754455 304.04097955 524.3571457 301.5543116 527.0859375 299.06640625 C530.80347208 295.68209605 534.55474414 292.34554098 538.3515625 289.05078125 C541.930896 285.89566505 545.43400127 282.65618758 548.9453125 279.42578125 C551.05262896 277.55406539 553.17530163 275.83620963 555.4609375 274.19140625 C553.97510029 268.98238735 550.6875784 266.03163927 546.921875 262.359375 C546.28101959 261.72276443 545.64016418 261.08615387 544.97988892 260.43025208 C542.93885902 258.40596518 540.88762894 256.39238085 538.8359375 254.37890625 C537.44722998 253.00525116 536.05920106 251.63090966 534.671875 250.25585938 C531.27604137 246.89303698 527.87102348 243.53977265 524.4609375 240.19140625 C520.33995301 241.45477652 516.7614799 242.98729218 513.03125 245.140625 C511.4858252 246.03019897 511.4858252 246.03019897 509.90917969 246.93774414 C508.81250977 247.57832764 507.71583984 248.21891113 506.5859375 248.87890625 C505.73207458 249.37485794 505.73207458 249.37485794 504.86096191 249.88082886 C493.53814962 256.45901806 482.41059901 263.33566158 471.35595703 270.35498047 C468.48821548 272.17410274 465.61398626 273.98256148 462.73828125 275.7890625 C450.78472573 283.3184118 439.05357704 291.11868333 427.4609375 299.19140625 C426.64383301 299.75859375 425.82672852 300.32578125 424.98486328 300.91015625 C407.53961494 313.02481815 390.35646664 325.42102924 373.5 338.34375 C369.74565886 341.21943065 365.96495958 344.05544152 362.1640625 346.86914062 C355.15997921 352.05916634 348.3819814 357.47077351 341.68139648 363.046875 C337.27003001 366.71599545 332.80774642 370.30066934 328.2734375 373.81640625 C322.88098558 378.00694004 317.66983244 382.37468014 312.50805664 386.84545898 C308.95711657 389.9195342 305.36345057 392.92504547 301.7109375 395.87890625 C297.32866545 399.43469717 293.14133988 403.15873156 288.97265625 406.9609375 C286.46635006 409.18659976 283.89169357 411.28662186 281.2734375 413.37890625 C275.20055569 418.28724396 269.56574712 423.62641224 263.88671875 428.98046875 C261.45435587 431.27105813 258.99661231 433.51481393 256.4609375 435.69140625 C251.9496947 439.57635937 247.63102186 443.6672745 243.28979492 447.73974609 C240.31154473 450.53302318 237.3311659 453.32144716 234.3046875 456.0625 C226.42781365 463.20900049 218.90593832 470.67676742 211.4387207 478.25048828 C204.55023949 485.21034919 204.55023949 485.21034919 201.30078125 487.7890625 C199.05201575 489.6913882 197.34384082 491.40923773 195.4609375 493.62890625 C192.11629032 497.54692151 188.54839597 501.186412 184.8984375 504.81640625 C184.2995874 505.41203369 183.7007373 506.00766113 183.08374023 506.62133789 C180.581227 509.10535069 178.07420021 511.58478537 175.56738281 514.06445312 C173.71726851 515.89630655 171.86939571 517.73036504 170.0234375 519.56640625 C169.43353027 520.15313614 168.84362305 520.73986603 168.23583984 521.34437561 C164.64010942 524.94443152 161.2439722 528.64920405 157.9609375 532.53857422 C156.41918951 534.23740786 154.79709392 535.64908438 153.0234375 537.1015625 C139.34312905 548.81499243 134.88220174 565.56920444 129.04850769 582.00497437 C126.52163388 589.11055167 123.74716118 596.07153821 120.7734375 603.00390625 C120.3395874 604.01807617 119.9057373 605.03224609 119.45874023 606.07714844 C112.29951616 622.64460941 104.78649905 639.09858665 96.51220703 655.14208984 C95.33378161 657.43928051 94.17755871 659.74715078 93.01953125 662.0546875 C84.05824036 679.72839062 73.76338212 696.63307486 61.4609375 712.19140625 C60.59106328 713.32576246 59.72265032 714.46124027 58.85546875 715.59765625 C52.7781003 723.51586491 46.36821072 730.98810704 39.4609375 738.19140625 C38.94241211 738.73716309 38.42388672 739.28291992 37.88964844 739.84521484 C19.93371461 758.65953516 19.93371461 758.65953516 11.4609375 760.37890625 C8.4609375 760.19140625 8.4609375 760.19140625 6.796875 758.9453125 C3.66063188 754.82784712 5.25969148 748.71797518 5.89453125 743.90234375 C11.15448126 713.91082757 27.20715774 686.48236847 43.4609375 661.19140625 C43.91952148 660.47710449 44.37810547 659.76280273 44.85058594 659.02685547 C47.64889379 654.69805751 50.52631392 650.4287939 53.4609375 646.19140625 C53.91114258 645.54075195 54.36134766 644.89009766 54.82519531 644.21972656 C65.81400895 628.39553366 77.12045331 612.83130824 89.375 597.9609375 C92.3237274 594.3792901 95.17956604 590.7314642 98.0234375 587.06640625 C103.12904112 580.50767649 108.50302284 574.19786254 113.96630859 567.93554688 C114.45953613 567.35998047 114.95276367 566.78441406 115.4609375 566.19140625 C116.28053955 565.34666748 117.1001416 564.50192871 117.94458008 563.6315918 C121.29214223 559.57772826 122.24106374 555.02112778 123.44921875 549.9921875 C123.70914108 548.96276535 123.96906342 547.9333432 124.23686218 546.87272644 C125.10090986 543.42075745 125.93805819 539.96291707 126.7734375 536.50390625 C127.38342754 534.02863696 127.99345454 531.55337678 128.60351562 529.078125 C133.84843365 507.57715891 138.42397113 485.93943721 142.96641159 464.28133392 C156.67311668 398.94008384 171.35011122 332.89531107 202.39355469 273.25683594 C203.58306482 270.95508486 204.74430807 268.64000232 205.90625 266.32421875 C220.41230097 237.68896727 238.95192744 212.1144568 260.51171875 188.42578125 C263.07437076 185.48823225 265.28364716 182.42222417 267.4609375 179.19140625 C264.6336505 179.19140625 263.24943659 180.44927713 260.875 181.97265625 Z M-513.9765625 344.19140625 C-515.00629181 344.31678772 -515.00629181 344.31678772 -516.05682373 344.44470215 C-522.74782342 345.27205012 -529.09108049 346.23237065 -535.5390625 348.19140625 C-531.78235582 352.18469942 -527.82330337 355.31005364 -523.2890625 358.37890625 C-522.58652344 358.85521484 -521.88398437 359.33152344 -521.16015625 359.82226562 C-477.29593995 389.2338849 -425.84381721 403.1730171 -373.5390625 407.19140625 C-372.80155762 407.24925293 -372.06405273 407.30709961 -371.30419922 407.36669922 C-322.89710261 410.97661105 -268.9375418 407.666188 -224.5390625 386.19140625 C-223.8790625 385.53140625 -223.2190625 384.87140625 -222.5390625 384.19140625 C-290.97785423 351.20246603 -367.58992938 339.91852172 -442.9765625 340.00390625 C-444.47500702 340.00481262 -444.47500702 340.00481262 -446.00372314 340.0057373 C-468.83414678 340.04296847 -491.31113038 341.41915668 -513.9765625 344.19140625 Z M-670.5390625 396.19140625 C-671.38855469 396.6719043 -672.23804688 397.15240234 -673.11328125 397.64746094 C-683.86155675 403.80064036 -690.94660143 409.29341001 -695.61865234 420.90771484 C-696.6393442 423.4402219 -697.73630493 425.93220491 -698.83984375 428.4296875 C-722.7142403 483.25150555 -737.5147423 541.48929068 -741.5390625 601.19140625 C-741.59545898 601.98337402 -741.65185547 602.7753418 -741.70996094 603.59130859 C-744.15433219 639.03469181 -742.29643583 674.67304179 -737.03173828 709.77734375 C-736.57793313 712.92204703 -736.20355783 716.06568728 -735.84765625 719.22265625 C-734.56189298 729.45720165 -734.56189298 729.45720165 -728.53173828 737.5480957 C-726.28781832 739.22070674 -723.96398859 740.66237301 -721.53271484 742.04638672 C-719.38812075 743.27809701 -717.32106411 744.59984925 -715.24609375 745.9453125 C-706.32244656 751.66400152 -697.12459056 756.73979454 -687.53564453 761.24853516 C-686.2168861 761.87130907 -684.90259803 762.50364917 -683.59326172 763.14599609 C-603.33728204 802.5059384 -494.48811475 804.61667198 -388.09887695 774.34790039 C-324.45548664 752.45480101 -266.85544681 715.01372351 -216.140625 671.2890625 C-213.79123274 669.26396506 -211.4323111 667.25115895 -209.0625 665.25 C-202.21755204 659.45685792 -195.55694097 653.51033973 -189.03930664 647.35009766 C-185.70349422 644.19786055 -182.32667744 641.10497041 -178.89624023 638.05566406 C-173.79352137 633.46806002 -168.90362691 628.7010214 -164.05859375 623.84375 C-163.20150314 622.98761612 -162.34441254 622.13148224 -161.46134949 621.24940491 C-159.66612041 619.4548509 -157.87213165 617.65905529 -156.0793457 615.86206055 C-153.35154848 613.1288922 -150.61843355 610.4011233 -147.88476562 607.67382812 C-146.12988752 605.91828938 -144.37531956 604.16244054 -142.62109375 602.40625 C-141.81364212 601.6008226 -141.00619049 600.7953952 -140.17427063 599.96556091 C-135.98219773 595.75628272 -131.93779787 591.47661137 -128.07145691 586.96534729 C-125.47807938 583.96318361 -122.752199 581.08498208 -120.0390625 578.19140625 C-115.44711292 573.26631141 -110.91651143 568.30922709 -106.5390625 563.19140625 C-105.66283929 562.16920322 -104.78652905 561.14707479 -103.91015625 560.125 C-102.39887709 558.36192475 -100.88803443 556.59848362 -99.37841797 554.83398438 C-94.94019868 549.64892943 -90.47225819 544.49005066 -85.99169922 539.34155273 C-84.98323083 538.18096811 -83.98067369 537.01521352 -82.98486328 535.84375 C-82.01956949 534.74055709 -81.01668192 533.66918927 -79.97998047 532.6328125 C-78.32042828 530.98954287 -78.32042828 530.98954287 -76.5390625 528.19140625 C-76.82500468 525.20168229 -76.82500468 525.20168229 -78.5390625 522.19140625 C-78.84553711 521.54896973 -79.15201172 520.9065332 -79.46777344 520.24462891 C-88.17208362 502.30485621 -98.78935484 485.50949987 -111.5390625 470.19140625 C-112.20156006 469.38461426 -112.20156006 469.38461426 -112.87744141 468.56152344 C-122.28012774 457.11626742 -132.02001863 445.56371922 -143.5390625 436.19140625 C-144.126875 435.68867188 -144.7146875 435.1859375 -145.3203125 434.66796875 C-147.63700487 432.26435457 -147.63700487 432.26435457 -150.5390625 431.19140625 C-150.57346436 431.84810303 -150.60786621 432.5047998 -150.64331055 433.18139648 C-154.2786562 498.25126565 -182.88589402 555.2676254 -231.4140625 598.75390625 C-232.77943502 599.91119486 -234.15604126 601.05526749 -235.5390625 602.19140625 C-236.04066895 602.60680664 -236.54227539 603.02220703 -237.05908203 603.45019531 C-251.40142388 615.28766587 -266.38910486 625.96400429 -282.5390625 635.19140625 C-283.23080566 635.59069336 -283.92254883 635.98998047 -284.63525391 636.40136719 C-349.13083188 673.52508562 -424.40928567 689.87784034 -498.5390625 688.19140625 C-499.78695557 688.16457764 -499.78695557 688.16457764 -501.06005859 688.13720703 C-549.03748022 686.97939362 -603.97812551 680.04749414 -639.953125 644.90625 C-649.76791822 634.60219972 -655.80482698 622.08703603 -658.5390625 608.19140625 C-658.7659375 607.07765625 -658.9928125 605.96390625 -659.2265625 604.81640625 C-661.44808089 579.0467929 -654.87889893 553.57474293 -638.328125 533.41796875 C-625.89324647 518.81431941 -611.49187767 508.06867961 -594.5390625 499.19140625 C-593.91757324 498.86430664 -593.29608398 498.53720703 -592.65576172 498.20019531 C-534.77941836 468.23138907 -454.57164795 462.62615952 -392.59619141 481.84326172 C-374.8211569 487.56670189 -358.82898973 495.4856099 -343.5390625 506.19140625 C-344.24228573 509.50952751 -345.0948378 510.85345218 -347.5390625 513.19140625 C-347.5390625 513.85140625 -347.5390625 514.51140625 -347.5390625 515.19140625 C-348.00054688 514.86978516 -348.46203125 514.54816406 -348.9375 514.21679688 C-399.90344512 478.91331117 -462.36469651 475.09902332 -522.26953125 485.29296875 C-556.48425836 491.55182322 -589.36996004 502.97713144 -616.5390625 525.19140625 C-617.47234375 525.94035156 -618.405625 526.68929687 -619.3671875 527.4609375 C-636.35550098 541.85826606 -647.58831311 562.0881076 -650.5390625 584.19140625 C-651.87874048 603.30445499 -648.53952891 620.7856658 -635.83349609 635.85766602 C-625.51289525 647.42795458 -612.53019316 654.87756768 -598.5390625 661.19140625 C-597.37117187 661.72507812 -596.20328125 662.25875 -595 662.80859375 C-516.52027333 696.39304441 -410.05616066 680.57274586 -333.58398438 650.41748047 C-299.0053096 636.49396341 -267.59234083 617.71480187 -239.5390625 593.19140625 C-238.67925781 592.44375 -237.81945312 591.69609375 -236.93359375 590.92578125 C-226.56473543 581.76030395 -217.06286968 572.10732983 -208.5390625 561.19140625 C-207.76175781 560.23105469 -206.98445312 559.27070312 -206.18359375 558.28125 C-190.08149565 538.03202965 -177.97326196 515.59787094 -169.5390625 491.19140625 C-169.16007813 490.10158447 -169.16007813 490.10158447 -168.7734375 488.98974609 C-163.51741024 473.53191591 -160.96117542 457.18101027 -159.75292969 440.93432617 C-159.57324306 438.6297837 -159.3296969 436.34904336 -159.0546875 434.0546875 C-158.49137367 426.92335343 -158.49137367 426.92335343 -161.39453125 420.625 C-163.73921445 418.64212873 -166.11584143 416.9214463 -168.72900391 415.31005859 C-170.67471759 414.10756869 -172.56400639 412.83839931 -174.45703125 411.5546875 C-181.70753175 406.69201509 -189.15968968 402.14986711 -196.6640625 397.69140625 C-197.35000488 397.28220947 -198.03594727 396.8730127 -198.74267578 396.45141602 C-200.65751193 395.3301642 -202.59385073 394.25881027 -204.5390625 393.19140625 C-206.22708984 392.20333984 -206.22708984 392.20333984 -207.94921875 391.1953125 C-213.13342903 389.74553879 -216.1095099 391.42831264 -220.8515625 393.62890625 C-222.64418329 394.39968228 -224.43849094 395.16654568 -226.234375 395.9296875 C-227.12930664 396.31592285 -228.02423828 396.7021582 -228.94628906 397.10009766 C-303.64960747 428.54301981 -406.59403015 422.84029418 -480.4453125 392.7890625 C-504.74967217 382.57711464 -526.27552654 368.73385051 -546.45703125 351.84375 C-565.73067333 336.54778265 -651.77165432 385.30036508 -670.5390625 396.19140625 Z M-178.4140625 371.75390625 C-185.22331838 376.43135858 -192.1787675 380.44299294 -199.5390625 384.19140625 C-197.34982418 386.5583719 -195.15063408 388.14801591 -192.36328125 389.7578125 C-191.54134277 390.23895508 -190.7194043 390.72009766 -189.87255859 391.21582031 C-188.99937988 391.72338867 -188.12620117 392.23095703 -187.2265625 392.75390625 C-180.11897547 396.93544452 -173.27453643 401.29246134 -166.6784668 406.24438477 C-163.9121793 408.50777645 -163.9121793 408.50777645 -160.5390625 409.19140625 C-161.11513589 395.02000077 -164.05764436 380.63566066 -168.5390625 367.19140625 C-172.72381389 367.19140625 -175.11191763 369.43253464 -178.4140625 371.75390625 Z M-743.5390625 457.19140625 C-770.77551215 490.18401278 -788.20936008 526.69995074 -794.5390625 569.19140625 C-794.6436377 569.86421631 -794.74821289 570.53702637 -794.85595703 571.23022461 C-800.40877947 612.55852114 -792.32722692 655.66974457 -770.5390625 691.19140625 C-769.52971562 688.16336561 -769.52668596 686.93396975 -769.87890625 683.85546875 C-773.58270818 646.97959012 -773.04110533 608.977141 -768.5390625 572.19140625 C-768.4565625 571.51086182 -768.3740625 570.83031738 -768.2890625 570.12915039 C-763.82879711 533.79085361 -755.82357521 497.19724456 -743.25390625 462.78125 C-742.25723106 460.10816052 -742.25723106 460.10816052 -743.5390625 457.19140625 Z M111.4609375 585.19140625 C102.71021217 595.6609887 94.19896101 606.26988077 85.99169922 617.17089844 C84.57057787 619.04668795 83.13120245 620.90634023 81.68359375 622.76171875 C57.59315505 653.88704191 25.11805107 696.59212375 23.4609375 737.19140625 C26.37714191 737.5088448 26.37714191 737.5088448 27.86328125 736.0390625 C31.78975409 731.47316405 35.33026232 726.67487179 38.796875 721.7578125 C39.31470047 721.02333893 39.83252594 720.28886536 40.36604309 719.53213501 C46.49955419 710.77835687 52.39002086 701.86456585 58.26196289 692.93408203 C60.1527021 690.05992353 62.04971162 687.18997509 63.94726562 684.3203125 C73.0441779 670.53091594 81.87175329 656.69371763 89.4609375 642.00390625 C89.96657227 641.02687744 90.47220703 640.04984863 90.99316406 639.04321289 C97.8279615 625.70931322 103.86886401 612.1770832 109.0859375 598.12890625 C109.44139648 597.18200928 109.79685547 596.2351123 110.16308594 595.25952148 C110.48051758 594.37981689 110.79794922 593.5001123 111.125 592.59375 C111.40811035 591.81507568 111.6912207 591.03640137 111.98291016 590.23413086 C112.69159921 588.00993332 112.69159921 588.00993332 111.4609375 585.19140625 Z M-57.5390625 592.19140625 C-59.18288986 594.48289542 -60.77610305 596.79084876 -62.3515625 599.12890625 C-63.35460265 600.60215254 -64.35853925 602.07478883 -65.36328125 603.546875 C-65.88583496 604.31306152 -66.40838867 605.07924805 -66.94677734 605.86865234 C-88.60041181 637.45599953 -112.49046823 667.46579191 -138.78173828 695.31640625 C-140.52682671 697.17835111 -142.25229308 699.05661465 -143.97265625 700.94140625 C-174.64783058 734.45162442 -211.39711151 762.00537656 -251.5390625 783.19140625 C-252.8703418 783.89499268 -252.8703418 783.89499268 -254.22851562 784.61279297 C-325.96956555 822.20619387 -406.76257199 837.79192856 -628.96142578 821.31347656 C-657.83026824 812.21441447 -685.66783089 800.62283303 -710.5390625 783.19140625 C-711.51359375 782.51464844 -712.488125 781.83789062 -713.4921875 781.140625 C-715.8472558 779.49931343 -718.19619937 777.85007041 -720.5390625 776.19140625 C-721.8442863 780.10707766 -720.70022076 782.58776102 -719.43359375 786.33984375 C-719.19872757 787.0556813 -718.96386139 787.77151886 -718.72187805 788.50904846 C-717.94326917 790.86551268 -717.14904408 793.21626612 -716.3515625 795.56640625 C-716.07963074 796.37417511 -715.80769897 797.18194397 -715.52752686 798.01419067 C-698.7989091 847.56698657 -674.82996225 894.55113968 -644.5390625 937.19140625 C-644.03697266 937.90458008 -643.53488281 938.61775391 -643.01757812 939.35253906 C-636.19315208 949.03516568 -629.11963974 958.43451908 -621.5390625 967.5390625 C-619.63122909 969.83291902 -617.80028533 972.15439947 -616.0390625 974.5625 C-615.2965625 975.55378906 -614.5540625 976.54507812 -613.7890625 977.56640625 C-613.17546875 978.41976563 -612.561875 979.273125 -611.9296875 980.15234375 C-606.7604093 984.56143398 -598.52650151 984.56040605 -591.9453125 985.2265625 C-591.15491577 985.31014511 -590.36451904 985.39372772 -589.5501709 985.47984314 C-587.8865742 985.65452489 -586.22270816 985.82665904 -584.55859375 985.99633789 C-582.07215309 986.25052344 -579.5868658 986.51424717 -577.1015625 986.77929688 C-556.95398061 988.89756146 -536.98357161 989.43223139 -516.7265625 989.44140625 C-516.05774426 989.44184811 -515.38892601 989.44228996 -514.69984055 989.44274521 C-476.99669106 989.45575893 -439.80854432 986.98417954 -402.5390625 981.19140625 C-401.83944397 981.08332642 -401.13982544 980.97524658 -400.41900635 980.8638916 C-319.50224044 968.26908507 -237.97683823 939.05230508 -157.5390625 876.19140625 C-156.47558594 875.27681641 -156.47558594 875.27681641 -155.390625 874.34375 C-143.38456698 863.97933664 -131.93219287 853.18261253 -121.5390625 841.19140625 C-121.01642822 840.59674561 -120.49379395 840.00208496 -119.95532227 839.3894043 C-78.91319276 792.46446037 -51.62378788 730.07521965 -51.3359375 667.2265625 C-51.32561996 665.69103226 -51.32561996 665.69103226 -51.31509399 664.1244812 C-51.29799745 660.83425302 -51.29163866 657.54417651 -51.2890625 654.25390625 C-51.28739075 653.13557404 -51.28571899 652.01724182 -51.28399658 650.86502075 C-51.28221312 630.99567307 -51.96738574 611.61109405 -56.5390625 592.19140625 C-56.8690625 592.19140625 -57.1990625 592.19140625 -57.5390625 592.19140625 Z " fill="#7F7F7F" transform="translate(1018.5390625,70.80859375)"/>
<path d="M0 0 C0.66 0.33 1.32 0.66 2 1 C-6.58 9.58 -15.16 18.16 -24 27 C-24.66 26.67 -25.32 26.34 -26 26 C-11.86476132 10.55075621 -11.86476132 10.55075621 -5.5546875 5.296875 C-3.57964656 3.64935341 -1.78019339 1.85436812 0 0 Z " fill="#757575" transform="translate(494,109)"/>
<path d="M0 0 C0 3 0 3 -1.53125 4.82421875 C-2.1809375 5.43910156 -2.830625 6.05398437 -3.5 6.6875 C-4.1496875 7.31011719 -4.799375 7.93273437 -5.46875 8.57421875 C-5.9740625 9.04472656 -6.479375 9.51523438 -7 10 C-7 6.78465943 -6.73523928 5.64417414 -5 3 C-2.375 1.25 -2.375 1.25 0 0 Z " fill="#717171" transform="translate(1291,245)"/>
</svg>
